<svg width="500px" height="600px" viewBox="245 200 510 610" version="1.1" xmlns="http://www.w3.org/2000/svg" xmlns:xlink="http://www.w3.org/1999/xlink">
 <title>
  remitly-mark-blue
 </title>
 <g id="remitly-mark-blue" stroke="none" stroke-width="1" fill="none" fill-rule="evenodd">
  <path d="M714.825706,533.06039 L520.236871,391.732691 C510.428609,384.615361 497.152728,384.615361 487.359455,391.732691 L400.629031,454.709824 C395.56501,458.380868 389.376761,459.871761 383.203501,458.890319 C377.025245,457.918866 371.603969,454.594948 367.923997,449.530405 C364.244024,444.475852 362.760044,438.290019 363.741869,432.121666 C364.723695,425.950816 368.038918,420.524164 373.105437,416.845628 L434.598197,372.186255 L434.613187,372.186255 L488.143916,333.310649 C518.050873,311.579068 559.280052,314.273664 586.026679,339.751208 C591.935121,345.392629 601.15129,345.737258 607.759251,340.929938 L714.825706,263.173732 L714.825706,533.06039 Z M712.374889,588.30086 L712.095082,590.163852 C711.44303,594.246952 708.7199,600.143098 705.734451,602.980041 C697.862358,610.484454 686.320287,611.078814 677.931049,604.975391 L582.948794,535.929798 L582.256769,535.43533 C576.498225,531.244846 567.092186,531.294792 561.853284,536.127085 C554.23102,543.154512 555.227836,554.921831 563.172378,560.688117 L564.336579,561.52971 L651.446742,624.794033 C656.288416,628.325228 659.868457,633.537112 660.685396,639.490696 C661.832108,647.704344 658.516885,655.423526 652.006357,660.158423 L650.010228,661.60936 C642.435432,667.110931 632.172481,667.110931 624.59019,661.60936 L516.566892,583.146415 C510.808348,578.970914 501.384821,579.013369 496.153414,583.838169 C488.523655,590.88058 489.530464,602.632915 497.467512,608.399201 L585.739377,672.505118 C590.598539,676.033815 594.16359,681.255688 594.980529,687.20178 C596.142231,695.43291 592.827008,703.13461 586.308986,707.877 L584.302864,709.327936 C576.728067,714.829507 566.465117,714.829507 558.89032,709.327936 L539.213836,695.028346 L450.859527,630.864991 C445.100983,626.681999 435.687449,626.739437 430.456043,631.564238 C422.816291,638.591664 423.830594,650.351492 431.767642,656.117778 L520.039507,720.231186 C524.891174,723.752391 528.456225,728.974264 529.288154,734.912864 C530.434866,743.143994 527.119643,750.863176 520.601621,755.595576 L518.662952,757.006555 C511.872617,761.931248 503.011204,762.450688 495.76618,758.564876 L284.511294,605.132721 L284.511294,263.173732 L376.315732,329.854374 L405.250856,350.859238 L352.819372,388.945694 C340.30297,398.025909 332.083616,411.443949 329.667775,426.727479 C327.231948,441.993527 330.911921,457.292041 340.013169,469.81105 C349.104424,482.322567 362.520209,490.536216 377.799713,492.968594 C380.870104,493.45557 383.937996,493.695311 386.983405,493.695311 C399.120068,493.695311 410.909469,489.89191 420.917595,482.627239 L494.249722,429.374626 C499.940813,425.234088 507.648019,425.234088 513.339109,429.374626 L705.734451,569.16648 C710.973352,574.023746 713.499117,581.116103 712.374889,588.30086 L712.374889,588.30086 Z M690.10019,238.490332 L602.900089,301.822083 C600.23442,303.752502 596.611908,303.942298 593.848806,302.134246 C558.370677,279.026648 512.209885,278.010243 475.48761,300.346173 C474.373375,300.84064 473.291618,301.432502 472.259827,302.1767 L434.588204,329.539713 L309.239308,238.490332 L690.10019,238.490332 Z M744.280473,209.047061 C741.055189,205.805554 736.658209,204 732.078855,204 L267.253149,204 C257.722196,204 250,211.719181 250,221.236425 L250,613.923248 C250,619.442301 252.648181,624.621719 257.102621,627.870718 L480.701528,790.308168 L480.709023,790.308168 C492.013758,798.524314 507.32574,798.524314 518.627976,790.308168 L742.216891,627.928156 C746.688819,624.669168 749.339498,619.492247 749.339498,613.973194 L749.339498,221.253906 C749.339498,216.676339 747.523246,212.288568 744.280473,209.047061 L744.280473,209.047061 Z" id="Fill-11" fill="#212E61">
  </path>
 </g>
</svg>