<svg version="1.1" id="Layer_1" xmlns:x="ns_extend;" xmlns:i="ns_ai;" xmlns:graph="ns_graphs;" xmlns="http://www.w3.org/2000/svg" xmlns:xlink="http://www.w3.org/1999/xlink" x="0px" y="0px" viewBox="0 0 122.7 120" style="enable-background:new 0 0 122.7 120;" xml:space="preserve">
 <style type="text/css">
  .st0{fill:#813FD6;}
	.st1{opacity:0.7;fill:#813FD6;fill-opacity:0.6;enable-background:new    ;}
 </style>
 <metadata>
  <sfw xmlns="ns_sfw;">
   <slices>
   </slices>
   <sliceSourceBounds bottomLeftOrigin="true" height="120" width="122.7" x="0" y="0">
   </sliceSourceBounds>
  </sfw>
 </metadata>
 <g>
  <g>
   <path class="st0" d="M53.8,120L12.6,97.2L0,52.7l23.3-40.2L69.3,0l40.8,22.9l12.6,44.5l-23.3,40.2L53.8,120z M17.5,93.4l37,20.5
			l41-11.1l20.9-36.1l-11.2-40L68.6,6.1L27.2,17.3L6.3,53.4L17.5,93.4z">
   </path>
  </g>
  <path class="st1" d="M55,43.4h-0.4l-5.9,17L48,62.5c-0.2,0.7-0.2,1.4,0,2L53.8,81c0.3,0.9,1,1.6,1.9,1.9l1.1,0.4l6-17.1l0.8-2.3
		c0.2-0.6,0.2-1.3,0-2l-5.8-16.5C57.3,44.3,56.2,43.4,55,43.4z">
  </path>
  <path class="st1" d="M95.8,42.2H83.3c-0.7,0-1.4,0.4-1.6,1.1l-5.8,16.6l-0.5,1.4c-0.3,1-0.3,2.1,0,3.1l6.2,17.9
		c0.2,0.6,0.9,1.1,1.6,1c0.2,0,0.4,0,0.6-0.1l13.6-38.8c0.2-0.5,0.1-1.1-0.2-1.5C96.8,42.5,96.3,42.2,95.8,42.2z">
  </path>
  <path class="st0" d="M55.1,84.4H42.6c-0.7,0-1.4-0.4-1.6-1.1L27.5,44.4c-0.2-0.5-0.1-1.1,0.2-1.5c0.3-0.4,0.8-0.7,1.4-0.7h12.5
		c0.7,0,1.4,0.4,1.6,1.1l13.6,38.9c0.2,0.5,0.1,1.1-0.2,1.5C56.1,84.1,55.6,84.4,55.1,84.4L55.1,84.4z">
  </path>
  <path class="st0" d="M82.2,84.4H69.7c-0.7,0-1.4-0.4-1.6-1.1L54.6,44.4c-0.2-0.5-0.1-1.1,0.2-1.5s0.8-0.7,1.4-0.7h12.5
		c0.7,0,1.4,0.4,1.6,1.1l13.6,38.9c0.2,0.5,0.1,1.1-0.2,1.5C83.3,84.1,82.8,84.4,82.2,84.4L82.2,84.4z">
  </path>
 </g>
</svg>